<?xml version="1.0" encoding="utf-8"?>
<!-- Generator: Adobe Illustrator 25.0.1, SVG Export Plug-In . SVG Version: 6.00 Build 0)  -->
<svg version="1.1" id="Layer_1" xmlns="http://www.w3.org/2000/svg" xmlns:xlink="http://www.w3.org/1999/xlink" x="0px" y="0px"
	 viewBox="0 0 2550 1200" style="enable-background:new 0 0 2550 1200;" xml:space="preserve">
<style type="text/css">
	.st0{display:none;}
	.st1{display:inline;fill:#030712;}
	.st2{fill:#236C48;}
	.st3{fill:#CDBE45;}
	.st4{fill:#ECE06E;}
	.st5{fill:#FFFFFF;}
	.st6{fill:none;stroke:#FFFFFF;stroke-width:4;stroke-miterlimit:10;}
</style>
<g class="st0">
	<rect class="st1" width="2550" height="1200"/>
</g>
<g>
	<g>
		<path class="st2" d="M571.2,952.3c-13.3-25.7-35.9-39.9-62.2-47.9c-46-13.9-93.5-23.5-136.5-46.3c-26.6-19.8-53.8-38.8-75.4-64.8
			c2.6,9.8,3.8,19.9,9.3,28.5c27.6,69.5,79.3,113.3,148.3,138.6c17.7,6.7,35.7,12.2,54.5,14.8c12.2,0,24.4,0.1,36.5,0.1
			c6-1,12.1-1.4,17.8-3C578.5,968.2,578.7,966.9,571.2,952.3z"/>
	</g>
	<g>
		<g>
			<path class="st3" d="M850.5,266.1c-34.9-17.6-71-30.6-110.7-30.7c-34.6,0-66.6,10.5-97,25.6c-23,11.4-47,19.1-71.9,24.6
				c-43.9,9.8-86.2,23.8-125.6,45.9c-50.2,25.2-92.4,60.6-130.1,101.8c-27.9,30.5-49.5,65.1-66.7,102.5c0,0,0,0,0,0
				c-31.8,60.6-41.7,124.9-33.3,192.5c1.5,12.1,7.7,51.7,12.7,64.1c11.8,29.5,11.6,45.6,48.3,93.4c6,7.8,19.1,28.5,38.8,45.7
				c23.5,20.5,54.7,34.8,65.4,40.4c38.2,19.6,78.2,33.9,121.4,37.4c0,0,0,0,0,0c5.3,2.7,27.8,1.8,32.4-2.5
				c-6.4-5.5-34.3-11.6-37.1-12.5c-116.6-35.8-202-104.8-237.8-225.4c-11.7-39.4-17.9-79.8-13.1-121.3c3.7-31.6,12.7-61.5,24.6-90.8
				c0,0,0,0,0,0c22.1-50.1,55.2-92.1,93.6-130.7c31-31.3,66.5-56.4,103.4-79.9c0,0,0,0,0,0c8-4.3,16-8.7,24.1-12.9
				c47.7-25,97.4-41.6,152.5-38.7c20.6,1.1,40.5,5.7,60.7,8.4c51.6,6.9,100.5,1.3,145.6-26.6C858.3,271.9,857.1,269.4,850.5,266.1z"
				/>
		</g>
		<g>
			<path class="st3" d="M454.4,452.7c9.2,0.9,25.4,2.5,41.6,4.3c3.5,0.4,6.3,1.8,2.4,5.7c-18.4,18.6-35.4,38.4-57.6,53.1
				c-32.3,21.4-68.2,30.6-106,34.3c-11.7,1.1-23.3,2.8-34.8,5.1c-2.1,0.4-4.5,2.1-6.4,0.1c-2-2.1-0.1-4.1,0.9-6.1
				C326.8,487.4,376.1,452.7,454.4,452.7z"/>
		</g>
		<g>
			<path class="st3" d="M194.8,695.8c-25-35.2-48.2-70.8-54.5-114.2c-6.2-43,5.1-81.9,27.6-118.3c0.8-1.3,1.4-2.7,2.9-5.6
				c17.7,41.3,40.4,77.9,39.5,122.3c-0.3,15.3-4.1,30-6.9,44.9C199,648.3,195.8,671.8,194.8,695.8z"/>
		</g>
		<g>
			<path class="st3" d="M605.1,392c-43.5,34.6-91.1,50-146.1,40.6c-20.8-3.6-41.8-7.8-63.6-5C415.4,372.4,541.4,351.4,605.1,392z"/>
		</g>
		<g>
			<path class="st3" d="M231.9,532.3c-8.4-20.9-14.2-41.6-17.4-62.9c-9.2-61.1,16.8-107.5,61.1-146.3c1.7-1.5,3.1-3.9,5.6-3
				c2.8,1,1.6,3.9,1.9,5.9c2.4,14.6,5.6,29,7.5,43.7c3.5,26.9-0.9,52.3-11,76.9C267.4,476.9,244.7,501.5,231.9,532.3z"/>
		</g>
		<g>
			<path class="st3" d="M492.6,287.9c37.6-73.4,95.6-112.5,172.5-107.1c10.9,0.8,11.6,2.4,5.9,11.4c-28.1,44.2-66.6,72.9-119.1,82
				C532.6,277.5,513.7,282.9,492.6,287.9z"/>
		</g>
		<g>
			<path class="st3" d="M497.1,353.4c89.5-58.7,173.6-48.4,228.8-0.4c-21,7.3-41.6,12.3-62.9,15c-30.4,4-59.6-1.8-88.5-10.2
				C549.7,350.7,524.5,350.5,497.1,353.4z"/>
		</g>
		<g>
			<path class="st3" d="M261.6,721.2c-12.9-100.5,49.3-161.3,154.8-158.4c-20.8,33.3-40.4,66.6-74.3,88
				c-10.6,6.7-21.5,12.9-32.2,19.5c-17,10.5-32.4,22.6-41.6,41.1C266.7,714.7,264.2,717.5,261.6,721.2z"/>
		</g>
		<g>
			<path class="st3" d="M507.2,176.6c-12.2,76-50.2,132.8-118.4,168c11.2-41,11.9-86.1,39.7-122.6c10.6-13.9,24.8-23.3,40.3-31
				C481.1,185,493.9,180.6,507.2,176.6z"/>
		</g>
		<g>
			<path class="st3" d="M309.8,415.5c-2.7-10.9-1-20.4-1.1-29.6c-0.4-22.8-2.1-45.6,2.5-68.2c7.8-38.4,32.9-63.1,65.4-81.8
				c4.4-2.5,7-2.1,7.3,3.7c2.3,59.8-7.5,115.2-56.3,156.7C321.4,401.7,316.4,408.3,309.8,415.5z"/>
		</g>
		<g>
			<path class="st4" d="M419.4,473c-32.9,15.6-63.9,35.1-100.4,50C346.1,489.3,379.3,474.3,419.4,473z"/>
		</g>
		<g>
			<path class="st4" d="M185.1,647.2c-10.9-29-25.5-57.1-23.7-89.6c0.4-7.5-1.5-15.1,0.8-22.5c0.6-2.1,0.5-5,3.5-4.9
				c2.6,0,3.8,2.6,4.3,4.7c2.2,9.6,4.3,19.1,6,28.8C180.9,591.2,180.7,619.3,185.1,647.2z"/>
		</g>
		<g>
			<path class="st4" d="M252.7,447.5c-6.5-10-5.9-21.7-7.6-32.6c-3.9-24.1,1.2-46,17.3-64.9c1.6-1.9,2.7-5.5,5.9-3.7
				c1.5,0.8,2.5,3.9,2.4,6c-0.5,32-4.1,63.6-15.6,93.7C254.9,446.5,253.9,446.7,252.7,447.5z"/>
		</g>
		<g>
			<path class="st4" d="M546.3,240.8c12.7-24.8,45-42.3,80.5-44.5C601,215.6,571.9,224.9,546.3,240.8z"/>
		</g>
		<g>
			<path class="st4" d="M689.4,276.4c27.3-20.7,75.7-23.1,121-6.8C771.8,283.3,726.3,281.4,689.4,276.4z"/>
		</g>
		<g>
			<path class="st4" d="M362.4,583c-34.6,30.4-72.7,56.1-86.5,102.7c-1-0.6-2-1.2-3-1.9c0.4-4.3,0.7-8.7,1.3-13
				c6.2-45.8,32.1-75.3,75.1-90.7C353.4,578.7,356.7,579.8,362.4,583z"/>
		</g>
		<g>
			<path class="st4" d="M428.7,281.1c-3.2-7.5-0.7-13.2,0.7-19c6-24.3,18.3-44.7,38.2-60c3.1-2.4,7-6.4,10.9-2.7
				c3.2,3,0.2,7.2-1.5,10.4C463.4,234.7,446.6,257.4,428.7,281.1z"/>
		</g>
		<g>
			<path class="st4" d="M335,345.4c-8.5-36.3,5.2-75.2,32.7-93.1C364.5,276.6,345.1,331.8,335,345.4z"/>
		</g>
	</g>
	<g>
		<path class="st2" d="M121.1,664.5c0,0,70.8,86.7,100.4,102.7c0,0,20.5,95.9,100.4,171.2c0,0-114.1-63.9-143.8-125.5
			c0,0,52.5,132.4,262.5,203.1c0,0-212.3,0-292.2-189.4C148.5,826.5,111.9,742.1,121.1,664.5z"/>
	</g>
	<g>
		<path class="st2" d="M392.7,746.6c0,0-43.4-244.2,230.5-253.4c0,0,214.6-2.3,271.6,9.1v141.5c0,0,6.8,203.1-70.8,278.5
			c0,0-137,171.2-353.8,98.1c0,0,214.6,11.4,299-159.8c0,0,16-63.9,13.7-95.9H673.4c0,0-114.1-9.1-175.8,105
			c0,0-16-127.8,152.9-162.1c0,0,51.7-6.8,61.6-6.8c52.5,0,86.7-20.5,93.6-66.1c3-19.6,4.5-41.2,2.2-73.2l-173.5-4.6
			C634.6,557.2,410.9,561.7,392.7,746.6z"/>
	</g>
</g>
<g>
	<g>
		<g>
			<path class="st2" d="M1158.9,698.9c-14.6,4.6-42.8,11.1-72.9,11.1c-38.2,0-67.4-8.5-88.7-26.7c-20.2-17-31.9-43.3-31.8-73.5
				c0.2-63.4,51.3-103.9,126.2-103.9c27.9,0,49.6,5,60.1,9.4l-9.2,29.4c-12.3-4.8-27.5-8.5-51.5-8.5c-48.2,0-82.3,25.2-82.3,71.7
				c0,45.5,31.7,72.3,78.6,72.3c15,0,26-1.7,31.3-4v-49.9h-39.9v-28.7h80V698.9z"/>
		</g>
		<g>
			<path class="st2" d="M1200.6,610c0-19.4-0.5-33.6-1.3-46.4h35.8l1.5,27.5h1.2c8.1-20.4,27.1-30.7,44.8-30.7c4,0,6.4,0.1,9.7,0.8
				v34.4c-3.5-0.7-7.1-1-12.1-1c-19.7,0-33.4,11.1-37.1,27.6c-0.7,3.2-1.1,7.1-1.1,11V708h-41.4V610z"/>
		</g>
		<g>
			<path class="st2" d="M1409.2,708l-2.8-16.1h-1c-9.9,11.4-27,19.4-48.2,19.4c-33.2,0-51.6-20.9-51.6-43c0-36.5,36.8-54.9,97-54.7
				v-2.4c0-9.5-4.3-25.3-33.2-25.2c-16,0-32.8,4.6-44,10.8l-8.2-23.7c12.4-6.6,33.5-12.8,59.3-12.8c52.5,0,67.4,29.2,67.4,60.9v52
				c0,13.1,0.7,25.9,2.5,34.8H1409.2z M1403.7,637.3c-29.2-0.3-57.1,5.1-57.1,27.1c0,14.1,10.5,20.8,23.6,20.8
				c16.5,0,28.4-9.4,32.4-20c0.9-2.5,1.2-5.4,1.2-7.9V637.3z"/>
		</g>
		<g>
			<path class="st2" d="M1531.7,523.1c0,10.9-8.9,19.7-23.6,19.7c-13.7,0-22.7-8.8-22.7-19.7c0-11.1,9.3-19.7,23.2-19.7
				C1522.7,503.4,1531.5,511.9,1531.7,523.1z M1487.9,708V563.5h41.4V708H1487.9z"/>
		</g>
		<g>
			<path class="st2" d="M1573.9,606.5c0-16.7-0.6-30.4-1.3-43h36.1l2,21.7h1c7.2-11.2,25-25,52.1-25c28.5,0,58.1,16.2,58.1,61.9V708
				h-41.4v-81.5c0-20.7-8.6-36.5-31.2-36.5c-16.5,0-27.8,10.3-32.2,21.4c-1.3,3-1.9,7.4-1.9,11.6v85h-41.4V606.5z"/>
		</g>
		<g>
			<g>
				<path class="st3" d="M1958.7,626.4c-1.4-25.8-2.9-56.9-2.7-84.1h-0.9c-7.5,24.5-16.9,51.5-26.7,76.8l-33.3,86.5h-31.8l-30-85.4
					c-8.9-25.7-17-52.8-22.9-78h-0.7c-1,26.2-2.3,58.1-4.1,85.3l-5,80.4H1762l15.1-200h54.4l29.5,80.3c8.1,23.6,15.4,47.4,20.8,69.7
					h1c6.1-21.9,13.9-46.3,22.6-69.8l31.4-80.2h53.7l13,200h-40.3L1958.7,626.4z"/>
			</g>
		</g>
		<g>
			<g>
				<path class="st3" d="M2137.3,708l-2.8-16.1h-1c-9.9,11.4-27,19.4-48.2,19.4c-33.2,0-51.6-20.9-51.6-43c0-36.5,36.8-54.9,97-54.7
					v-2.4c0-9.5-4.3-25.3-33.2-25.2c-16,0-32.8,4.6-44,10.8l-8.2-23.7c12.4-6.6,33.5-12.8,59.3-12.8c52.5,0,67.4,29.2,67.4,60.9v52
					c0,13.1,0.7,25.9,2.5,34.8H2137.3z M2131.8,637.3c-29.2-0.3-57.1,5.1-57.1,27.1c0,14.1,10.5,20.8,23.6,20.8
					c16.5,0,28.4-9.4,32.4-20c0.9-2.5,1.2-5.4,1.2-7.9V637.3z"/>
			</g>
		</g>
		<g>
			<g>
				<path class="st3" d="M2216,610c0-19.4-0.5-33.6-1.3-46.4h35.8l1.5,27.5h1.2c8.1-20.4,27.1-30.7,44.8-30.7c4,0,6.4,0.1,9.7,0.8
					v34.4c-3.5-0.7-7.1-1-12.1-1c-19.7,0-33.4,11.1-37.1,27.6c-0.7,3.2-1.1,7.1-1.1,11V708H2216V610z"/>
			</g>
		</g>
		<g>
			<g>
				<path class="st3" d="M2390.7,522.2v41.4h39.3v27.2h-39.3v63.7c0,17.7,5.3,26.7,21.2,26.7c7.1,0,12.4-0.7,16.1-1.6l0.8,27.8
					c-6.2,2.1-17.1,3.7-30.1,3.7c-15.2,0-27.9-4.6-35.5-11.9c-8.9-8.3-12.9-21.6-12.9-40.5v-67.9h-23.3v-27.2h23.3v-32.7
					L2390.7,522.2z"/>
			</g>
		</g>
	</g>
	<g>
		<path class="st5" d="M1182.4,803.6c-1.5,2.5-3.9,4.5-7.2,6.1c-3.3,1.6-7.6,2.4-12.8,2.4H1151v22.5h-10.3v-55.5h21.7
			c4.8,0,8.9,0.7,12.3,2.2s5.8,3.4,7.5,6c1.7,2.5,2.5,5.3,2.5,8.4C1184.7,798.5,1183.9,801.1,1182.4,803.6z M1171.2,802.3
			c1.9-1.6,2.9-3.8,2.9-6.7c0-6.1-3.9-9.1-11.7-9.1H1151v18.1h11.4C1166.3,804.7,1169.3,803.9,1171.2,802.3z"/>
		<path class="st5" d="M1204.8,779.1v35.4c0,4.2,1.3,7.4,3.8,9.5c2.5,2.1,6,3.2,10.4,3.2c4.5,0,8-1.1,10.5-3.2
			c2.5-2.1,3.8-5.3,3.8-9.5v-35.4h10.3v35.2c0,4.5-1.1,8.4-3.3,11.5c-2.2,3.1-5.2,5.5-9,7c-3.7,1.5-7.9,2.3-12.4,2.3
			s-8.6-0.8-12.3-2.3c-3.7-1.5-6.6-3.9-8.8-7c-2.2-3.1-3.3-7-3.3-11.5v-35.2H1204.8z"/>
		<path class="st5" d="M1289.6,834.6l-14.5-22.2h-7.9v22.2h-10.3v-55.5h21.7c4.8,0,8.9,0.7,12.3,2.2c3.3,1.5,5.8,3.5,7.5,6
			c1.7,2.5,2.5,5.3,2.5,8.4c0,3.6-1.2,6.9-3.6,9.9s-6,5-11,6l15.6,23H1289.6z M1267.3,805.2h11.4c3.9,0,6.8-0.9,8.7-2.6
			c2-1.7,2.9-4,2.9-6.9c0-2.9-1-5.1-2.9-6.7c-1.9-1.6-4.9-2.4-8.8-2.4h-11.4V805.2z"/>
		<path class="st5" d="M1324.4,786.5v16.3h21.7v7.4h-21.7v17h24.4v7.4h-34.7V779h34.7v7.4H1324.4z"/>
		<path class="st5" d="M1430.5,795.1c-1.6-2.8-3.9-4.9-6.8-6.3c-2.9-1.4-6.2-2.1-10-2.1c-4.2,0-7.9,0.8-11.1,2.5
			c-3.3,1.7-5.8,4-7.6,7c-1.8,3-2.8,6.6-2.8,10.5s0.9,7.5,2.8,10.6c1.8,3.1,4.4,5.4,7.6,7.1c3.3,1.7,7,2.5,11.1,2.5
			c5.6,0,10.2-1.4,13.7-4.2c3.5-2.8,5.6-6.5,6.4-11.3h-23.6v-7.3h34.6v7.1c-0.7,4.3-2.4,8.3-5.2,11.9c-2.8,3.6-6.5,6.5-10.9,8.7
			c-4.5,2.2-9.5,3.2-15,3.2c-5.9,0-11.3-1.2-16.2-3.6c-4.9-2.4-8.8-5.8-11.6-10.1c-2.9-4.3-4.3-9.2-4.3-14.6
			c0-5.4,1.4-10.3,4.3-14.6c2.9-4.3,6.8-7.7,11.7-10.1c4.9-2.4,10.3-3.6,16.1-3.6c6.7,0,12.6,1.5,17.9,4.4c5.2,2.9,9,7,11.4,12.3
			H1430.5z"/>
		<path class="st5" d="M1487.6,834.6l-14.5-22.2h-7.9v22.2H1455v-55.5h21.7c4.8,0,8.9,0.7,12.3,2.2c3.3,1.5,5.8,3.5,7.5,6
			c1.7,2.5,2.5,5.3,2.5,8.4c0,3.6-1.2,6.9-3.6,9.9c-2.4,3-6,5-11,6l15.6,23H1487.6z M1465.3,805.2h11.4c3.9,0,6.8-0.9,8.7-2.6
			c2-1.7,2.9-4,2.9-6.9c0-2.9-1-5.1-2.9-6.7c-1.9-1.6-4.9-2.4-8.8-2.4h-11.4V805.2z"/>
		<path class="st5" d="M1550,823.3h-26.3l-4.5,11.3h-10.8L1531,779h11.9l22.5,55.6h-10.9L1550,823.3z M1547.1,815.9l-10.2-25.8
			l-10.3,25.8H1547.1z"/>
		<path class="st5" d="M1585.5,779.1v55.5h-10.3v-55.5H1585.5z"/>
		<path class="st5" d="M1650.7,834.6h-10.3l-31-41.5v41.5h-10.3V779h10.3l31,41.4V779h10.3V834.6z"/>
		<path class="st5" d="M1673.6,833.2c-3.4-1.3-6-3.2-8-5.6c-1.9-2.4-2.9-5.2-2.9-8.4h11c0.2,2.4,1.3,4.4,3.2,5.9
			c1.9,1.5,4.6,2.3,8,2.3c3.6,0,6.3-0.8,8.3-2.3c2-1.5,3-3.5,3-5.9c0-1.9-0.6-3.4-1.9-4.6c-1.2-1.2-2.8-2.1-4.6-2.7
			c-1.8-0.6-4.4-1.3-7.6-2.1c-4.1-1-7.4-1.9-10-2.9c-2.6-1-4.8-2.5-6.6-4.6c-1.8-2.1-2.7-4.8-2.7-8.3c0-3.2,0.9-6,2.7-8.4
			c1.8-2.4,4.3-4.2,7.6-5.5s7-1.9,11.3-1.9c6.1,0,11.1,1.3,15,4c3.9,2.7,6,6.4,6.5,11.1h-11.4c-0.2-2-1.3-3.8-3.3-5.2
			c-2-1.4-4.6-2.2-7.9-2.2c-3,0-5.4,0.7-7.2,2c-1.9,1.3-2.8,3.2-2.8,5.8c0,1.7,0.6,3.1,1.8,4.2c1.2,1.1,2.7,2,4.5,2.6
			s4.3,1.3,7.4,2.1c4.2,1,7.6,2,10.2,3c2.6,1,4.9,2.6,6.7,4.7c1.8,2.1,2.8,4.9,2.8,8.4c0,2.8-0.9,5.5-2.6,8c-1.7,2.5-4.2,4.5-7.5,6
			c-3.3,1.5-7.2,2.3-11.6,2.3C1680.8,835.2,1677,834.5,1673.6,833.2z"/>
		<path class="st5" d="M1730.2,823.7l-10.9,22h-6.7l6.4-22H1730.2z"/>
		<path class="st5" d="M1804.5,803.6c-1.5,2.5-3.9,4.5-7.2,6.1c-3.3,1.6-7.6,2.4-12.8,2.4h-11.4v22.5h-10.3v-55.5h21.7
			c4.8,0,8.9,0.7,12.3,2.2s5.8,3.4,7.5,6c1.7,2.5,2.5,5.3,2.5,8.4C1806.8,798.5,1806,801.1,1804.5,803.6z M1793.3,802.3
			c1.9-1.6,2.9-3.8,2.9-6.7c0-6.1-3.9-9.1-11.7-9.1h-11.4v18.1h11.4C1788.4,804.7,1791.4,803.9,1793.3,802.3z"/>
		<path class="st5" d="M1826.9,779.1v35.4c0,4.2,1.3,7.4,3.8,9.5c2.5,2.1,6,3.2,10.4,3.2c4.5,0,8-1.1,10.5-3.2
			c2.5-2.1,3.8-5.3,3.8-9.5v-35.4h10.3v35.2c0,4.5-1.1,8.4-3.3,11.5c-2.2,3.1-5.2,5.5-9,7c-3.7,1.5-7.9,2.3-12.4,2.3
			s-8.6-0.8-12.3-2.3c-3.7-1.5-6.6-3.9-8.8-7c-2.2-3.1-3.3-7-3.3-11.5v-35.2H1826.9z"/>
		<path class="st5" d="M1911.7,834.6l-14.5-22.2h-7.9v22.2H1879v-55.5h21.7c4.8,0,8.9,0.7,12.3,2.2c3.3,1.5,5.8,3.5,7.5,6
			c1.7,2.5,2.5,5.3,2.5,8.4c0,3.6-1.2,6.9-3.6,9.9s-6,5-11,6l15.6,23H1911.7z M1889.4,805.2h11.4c3.9,0,6.8-0.9,8.7-2.6
			c2-1.7,2.9-4,2.9-6.9c0-2.9-1-5.1-2.9-6.7c-1.9-1.6-4.9-2.4-8.8-2.4h-11.4V805.2z"/>
		<path class="st5" d="M1946.5,786.5v16.3h21.7v7.4h-21.7v17h24.4v7.4h-34.7V779h34.7v7.4H1946.5z"/>
		<path class="st5" d="M2047.8,779.1v7.4H2031v48.1h-10.3v-48.1h-16.8v-7.4H2047.8z"/>
		<path class="st5" d="M2090.8,834.6l-14.5-22.2h-7.9v22.2h-10.3v-55.5h21.7c4.8,0,8.9,0.7,12.3,2.2c3.3,1.5,5.8,3.5,7.5,6
			c1.7,2.5,2.5,5.3,2.5,8.4c0,3.6-1.2,6.9-3.6,9.9s-6,5-11,6l15.6,23H2090.8z M2068.5,805.2h11.4c3.9,0,6.8-0.9,8.7-2.6
			c2-1.7,2.9-4,2.9-6.9c0-2.9-1-5.1-2.9-6.7c-1.9-1.6-4.9-2.4-8.8-2.4h-11.4V805.2z"/>
		<path class="st5" d="M2125.6,779.1v35.4c0,4.2,1.3,7.4,3.8,9.5c2.5,2.1,6,3.2,10.4,3.2c4.5,0,8-1.1,10.5-3.2
			c2.5-2.1,3.8-5.3,3.8-9.5v-35.4h10.3v35.2c0,4.5-1.1,8.4-3.3,11.5c-2.2,3.1-5.2,5.5-9,7c-3.7,1.5-7.9,2.3-12.4,2.3
			s-8.6-0.8-12.3-2.3c-3.7-1.5-6.6-3.9-8.8-7s-3.3-7-3.3-11.5v-35.2H2125.6z"/>
		<path class="st5" d="M2187.1,833.2c-3.4-1.3-6-3.2-8-5.6c-1.9-2.4-2.9-5.2-2.9-8.4h11c0.2,2.4,1.3,4.4,3.2,5.9
			c1.9,1.5,4.6,2.3,8,2.3c3.6,0,6.3-0.8,8.3-2.3c2-1.5,3-3.5,3-5.9c0-1.9-0.6-3.4-1.9-4.6c-1.2-1.2-2.8-2.1-4.6-2.7
			c-1.8-0.6-4.4-1.3-7.6-2.1c-4.1-1-7.4-1.9-10-2.9c-2.6-1-4.8-2.5-6.6-4.6c-1.8-2.1-2.7-4.8-2.7-8.3c0-3.2,0.9-6,2.7-8.4
			c1.8-2.4,4.3-4.2,7.6-5.5c3.3-1.3,7-1.9,11.3-1.9c6.1,0,11.1,1.3,15,4c3.9,2.7,6,6.4,6.5,11.1h-11.4c-0.2-2-1.3-3.8-3.3-5.2
			c-2-1.4-4.6-2.2-7.9-2.2c-3,0-5.4,0.7-7.2,2c-1.9,1.3-2.8,3.2-2.8,5.8c0,1.7,0.6,3.1,1.8,4.2c1.2,1.1,2.7,2,4.5,2.6
			c1.8,0.6,4.3,1.3,7.4,2.1c4.2,1,7.6,2,10.2,3c2.6,1,4.9,2.6,6.7,4.7c1.8,2.1,2.8,4.9,2.8,8.4c0,2.8-0.9,5.5-2.6,8
			c-1.7,2.5-4.2,4.5-7.5,6c-3.3,1.5-7.2,2.3-11.6,2.3C2194.2,835.2,2190.4,834.5,2187.1,833.2z"/>
		<path class="st5" d="M2273,779.1v7.4h-16.7v48.1H2246v-48.1h-16.8v-7.4H2273z"/>
	</g>
	<line class="st6" x1="2300.3" y1="812.1" x2="2400.7" y2="812.1"/>
	<line class="st6" x1="1013" y1="812.1" x2="1113.4" y2="812.1"/>
	<g>
		<path class="st3" d="M2115.4,903.2c-272.2-5.1-544.4-6-819.4,1.5c5.6-5.1,10.2-5.3,14.8-5.9c61.1-7.3,122.7-8.9,184.2-11.2
			c112.8-4.3,225.7-3.1,338.6-2.3c85.4,0.6,170.6,5.4,255.7,11.7C2098.1,897.6,2107.5,897.9,2115.4,903.2z"/>
	</g>
</g>
</svg>
