<?xml version="1.0" encoding="utf-8"?>
<!-- Generator: Adobe Illustrator 25.0.1, SVG Export Plug-In . SVG Version: 6.00 Build 0)  -->
<svg version="1.1" id="Layer_1" xmlns="http://www.w3.org/2000/svg" xmlns:xlink="http://www.w3.org/1999/xlink" x="0px" y="0px"
	 viewBox="0 0 1200 1200" style="enable-background:new 0 0 1200 1200;" xml:space="preserve">
<style type="text/css">
	.st0{fill:#236C48;}
	.st1{fill:#CDBE45;}
	.st2{fill:#ECE06E;}
	.st3{fill:#242A27;}
	.st4{fill:none;stroke:#242A27;stroke-width:4;stroke-miterlimit:10;}
</style>
<g>
	<g>
		<g>
			<path class="st0" d="M180.6,942.7c-11.4,3.6-33.3,8.7-56.8,8.7c-29.7,0-52.4-6.6-69.1-20.7C39,917.3,29.9,896.9,30,873.4
				c0.1-49.4,39.9-80.9,98.2-80.9c21.7,0,38.6,3.9,46.8,7.3l-7.1,22.9c-9.6-3.7-21.4-6.6-40.1-6.6c-37.5,0-64,19.6-64,55.8
				c0,35.4,24.7,56.3,61.2,56.3c11.7,0,20.2-1.3,24.3-3.1v-38.9h-31v-22.3h62.3V942.7z"/>
		</g>
		<g>
			<path class="st0" d="M213,873.5c0-15.1-0.4-26.1-1-36.2h27.9l1.2,21.4h0.9c6.3-15.8,21.1-23.9,34.9-23.9c3.1,0,5,0.1,7.6,0.6
				v26.8c-2.8-0.5-5.6-0.8-9.4-0.8c-15.3,0-26,8.6-28.9,21.5c-0.5,2.5-0.8,5.5-0.8,8.6v58.3H213V873.5z"/>
		</g>
		<g>
			<path class="st0" d="M375.4,949.8l-2.2-12.5h-0.8c-7.7,8.9-21,15.1-37.5,15.1c-25.8,0-40.1-16.3-40.1-33.4
				c0-28.4,28.6-42.7,75.5-42.6v-1.9c0-7.4-3.3-19.7-25.9-19.6c-12.5,0-25.6,3.6-34.2,8.4l-6.4-18.5c9.6-5.2,26.1-10,46.2-10
				c40.8,0,52.5,22.7,52.5,47.4v40.5c0,10.2,0.6,20.1,2,27.1H375.4z M371.2,894.7c-22.7-0.3-44.4,4-44.4,21.1
				c0,11,8.2,16.2,18.4,16.2c12.8,0,22.1-7.3,25.2-15.6c0.7-2,0.9-4.2,0.9-6.2V894.7z"/>
		</g>
		<g>
			<path class="st0" d="M470.8,805.8c0,8.5-6.9,15.3-18.3,15.3c-10.7,0-17.7-6.8-17.6-15.3c0-8.7,7.2-15.4,18-15.4
				C463.7,790.5,470.7,797.1,470.8,805.8z M436.7,949.8V837.3h32.2v112.4H436.7z"/>
		</g>
		<g>
			<path class="st0" d="M503.6,870.8c0-13-0.5-23.7-1-33.4h28.1l1.6,16.9h0.7c5.6-8.7,19.4-19.4,40.6-19.4
				c22.2,0,45.3,12.6,45.3,48.2v66.8h-32.2v-63.4c0-16.1-6.7-28.4-24.3-28.4c-12.8,0-21.7,8-25,16.7c-1,2.3-1.5,5.8-1.5,9v66.2
				h-32.2V870.8z"/>
		</g>
		<g>
			<g>
				<path class="st1" d="M803.2,886.3c-1.1-20.1-2.2-44.3-2.1-65.5h-0.7c-5.8,19.1-13.2,40.1-20.8,59.8l-25.9,67.4h-24.8l-23.4-66.4
					c-6.9-20-13.2-41.1-17.8-60.7h-0.6c-0.8,20.4-1.8,45.3-3.2,66.4l-3.9,62.6h-30l11.7-155.7h42.3l23,62.5
					c6.3,18.4,12,36.9,16.2,54.2h0.8c4.7-17,10.8-36,17.6-54.3l24.4-62.4h41.8L838,949.8h-31.4L803.2,886.3z"/>
			</g>
		</g>
		<g>
			<g>
				<path class="st1" d="M942.2,949.8l-2.2-12.5h-0.8c-7.7,8.9-21,15.1-37.5,15.1c-25.8,0-40.1-16.3-40.1-33.4
					c0-28.4,28.6-42.7,75.5-42.6v-1.9c0-7.4-3.3-19.7-25.9-19.6c-12.5,0-25.6,3.6-34.2,8.4l-6.4-18.5c9.6-5.2,26.1-10,46.2-10
					c40.8,0,52.5,22.7,52.5,47.4v40.5c0,10.2,0.6,20.1,2,27.1H942.2z M937.9,894.7c-22.7-0.3-44.4,4-44.4,21.1
					c0,11,8.2,16.2,18.4,16.2c12.8,0,22.1-7.3,25.2-15.6c0.7-2,0.9-4.2,0.9-6.2V894.7z"/>
			</g>
		</g>
		<g>
			<g>
				<path class="st1" d="M1003.4,873.5c0-15.1-0.4-26.1-1-36.2h27.9l1.2,21.4h0.9c6.3-15.8,21.1-23.9,34.9-23.9c3.1,0,5,0.1,7.6,0.6
					v26.8c-2.8-0.5-5.6-0.8-9.4-0.8c-15.3,0-26,8.6-28.9,21.5c-0.5,2.5-0.8,5.5-0.8,8.6v58.3h-32.2V873.5z"/>
			</g>
		</g>
		<g>
			<g>
				<path class="st1" d="M1139.4,805.1v32.2h30.6v21.2h-30.6v49.6c0,13.8,4.2,20.8,16.5,20.8c5.5,0,9.6-0.6,12.5-1.2l0.6,21.6
					c-4.8,1.6-13.3,2.9-23.4,2.9c-11.8,0-21.7-3.6-27.7-9.3c-6.9-6.5-10.1-16.8-10.1-31.5v-52.9h-18.2v-21.2h18.2v-25.5
					L1139.4,805.1z"/>
			</g>
		</g>
	</g>
	<g>
		<g>
			<path class="st0" d="M650.1,700.9c-10.4-20-28-31.1-48.4-37.3c-35.8-10.9-72.8-18.3-106.3-36c-20.7-15.4-41.9-30.2-58.7-50.4
				c2,7.7,2.9,15.5,7.2,22.1c21.5,54.1,61.7,88.2,115.4,107.9c13.8,5.2,27.8,9.5,42.4,11.5c9.5,0,19,0.1,28.4,0.1
				c4.6-0.7,9.4-1.1,13.9-2.3C655.8,713.3,656,712.3,650.1,700.9z"/>
		</g>
		<g>
			<path class="st1" d="M867.5,166.8c-27.1-13.7-55.3-23.8-86.2-23.9c-26.9,0-51.8,8.2-75.5,19.9c-17.9,8.9-36.6,14.8-55.9,19.2
				c-34.2,7.7-67.1,18.5-97.8,35.7c-39.1,19.6-71.9,47.2-101.2,79.3c-21.7,23.7-38.5,50.6-51.9,79.8c0,0,0,0,0,0
				c-24.8,47.2-32.4,97.2-25.9,149.9c1.2,9.4,6,40.3,9.9,49.9c9.2,22.9,9,35.5,37.6,72.7c4.7,6.1,14.9,22.2,30.2,35.5
				c18.3,15.9,42.6,27.1,50.9,31.4c29.7,15.3,60.9,26.4,94.5,29.1c0,0,0,0,0,0c4.1,2.1,21.6,1.4,25.2-1.9c-5-4.3-26.7-9-28.9-9.7
				c-90.7-27.8-157.2-81.6-185.1-175.4c-9.1-30.7-13.9-62.1-10.2-94.5c2.8-24.6,9.9-47.9,19.1-70.7c0,0,0,0,0,0
				c17.2-39,43-71.7,72.8-101.8c24.2-24.4,51.8-43.9,80.5-62.2c0,0,0,0,0,0c6.2-3.3,12.5-6.7,18.7-10
				c37.2-19.5,75.8-32.4,118.7-30.1c16,0.8,31.5,4.4,47.3,6.5c40.2,5.4,78.2,1,113.3-20.7C873.6,171.3,872.7,169.4,867.5,166.8z"/>
		</g>
		<g>
			<path class="st1" d="M559.2,312.1c7.2,0.7,19.8,1.9,32.4,3.3c2.7,0.3,4.9,1.4,1.9,4.4c-14.3,14.5-27.6,29.9-44.8,41.3
				c-25.1,16.6-53.1,23.8-82.5,26.7c-9.1,0.9-18.1,2.2-27.1,4c-1.6,0.3-3.5,1.7-5,0.1c-1.5-1.6-0.1-3.2,0.7-4.8
				C459.9,339.1,498.3,312,559.2,312.1z"/>
		</g>
		<g>
			<path class="st1" d="M357.1,501.3c-19.5-27.4-37.5-55.1-42.4-88.9c-4.9-33.5,4-63.8,21.4-92.1c0.6-1,1.1-2.1,2.2-4.3
				c13.8,32.1,31.4,60.6,30.8,95.2c-0.2,11.9-3.2,23.4-5.4,35C360.4,464.3,357.9,482.6,357.1,501.3z"/>
		</g>
		<g>
			<path class="st1" d="M676.5,264.8c-33.8,26.9-70.9,38.9-113.7,31.6c-16.2-2.8-32.5-6-49.5-3.9C528.8,249.5,627,233.2,676.5,264.8
				z"/>
		</g>
		<g>
			<path class="st1" d="M386,374c-6.5-16.2-11-32.4-13.5-49c-7.2-47.6,13.1-83.7,47.6-113.9c1.3-1.1,2.4-3,4.4-2.3
				c2.2,0.8,1.2,3,1.5,4.6c1.9,11.3,4.3,22.6,5.9,34c2.8,20.9-0.7,40.7-8.5,59.8C413.7,330.9,396,350.1,386,374z"/>
		</g>
		<g>
			<path class="st1" d="M588.9,183.7c29.3-57.1,74.4-87.6,134.2-83.4c8.5,0.6,9.1,1.9,4.6,8.9c-21.9,34.4-51.9,56.7-92.7,63.8
				C620.1,175.7,605.4,179.9,588.9,183.7z"/>
		</g>
		<g>
			<path class="st1" d="M592.5,234.8c69.6-45.7,135.1-37.7,178.1-0.3c-16.3,5.7-32.4,9.5-48.9,11.7c-23.7,3.1-46.4-1.4-68.9-7.9
				C633.4,232.7,613.8,232.5,592.5,234.8z"/>
		</g>
		<g>
			<path class="st1" d="M409.1,521.1c-10-78.2,38.3-125.6,120.5-123.3c-16.2,26-31.5,51.9-57.8,68.5c-8.3,5.2-16.8,10-25.1,15.2
				c-13.2,8.2-25.2,17.6-32.4,32C413.1,516,411.1,518.2,409.1,521.1z"/>
		</g>
		<g>
			<path class="st1" d="M600.3,97.2c-9.5,59.2-39.1,103.4-92.1,130.8c8.7-31.9,9.3-67,30.9-95.4c8.2-10.8,19.3-18.2,31.4-24.1
				C580,103.7,590,100.3,600.3,97.2z"/>
		</g>
		<g>
			<path class="st1" d="M446.6,283.1c-2.1-8.5-0.8-15.8-0.9-23.1c-0.3-17.7-1.6-35.5,2-53.1c6.1-29.9,25.6-49.1,50.9-63.7
				c3.4-2,5.5-1.7,5.6,2.9c1.8,46.6-5.8,89.7-43.9,122C455.6,272.3,451.8,277.5,446.6,283.1z"/>
		</g>
		<g>
			<path class="st2" d="M531.9,327.8c-25.6,12.2-49.7,27.3-78.2,38.9C474.9,340.5,500.7,328.8,531.9,327.8z"/>
		</g>
		<g>
			<path class="st2" d="M349.6,463.4c-8.5-22.6-19.9-44.4-18.5-69.7c0.3-5.8-1.2-11.7,0.6-17.5c0.5-1.6,0.4-3.9,2.7-3.9
				c2,0,2.9,2,3.3,3.7c1.7,7.4,3.3,14.9,4.7,22.4C346.3,419.8,346.2,441.7,349.6,463.4z"/>
		</g>
		<g>
			<path class="st2" d="M402.2,308c-5.1-7.8-4.6-16.9-5.9-25.4c-3-18.7,1-35.8,13.4-50.5c1.2-1.5,2.1-4.3,4.6-2.9
				c1.2,0.7,1.9,3,1.9,4.6c-0.4,24.9-3.2,49.5-12.2,73C403.9,307.2,403.2,307.4,402.2,308z"/>
		</g>
		<g>
			<path class="st2" d="M630.7,147.1c9.9-19.3,35-32.9,62.6-34.6C673.3,127.5,650.6,134.7,630.7,147.1z"/>
		</g>
		<g>
			<path class="st2" d="M742.1,174.8c21.3-16.1,58.9-18,94.2-5.3C806.2,180.1,770.8,178.7,742.1,174.8z"/>
		</g>
		<g>
			<path class="st2" d="M487.6,413.5c-26.9,23.6-56.6,43.7-67.3,79.9c-0.8-0.5-1.5-1-2.3-1.5c0.3-3.4,0.5-6.8,1-10.1
				c4.8-35.7,25-58.6,58.5-70.6C480.6,410.1,483.1,411,487.6,413.5z"/>
		</g>
		<g>
			<path class="st2" d="M539.2,178.5c-2.5-5.8-0.5-10.3,0.6-14.8c4.6-18.9,14.2-34.8,29.8-46.7c2.4-1.8,5.4-5,8.5-2.1
				c2.5,2.4,0.2,5.6-1.2,8.1C566.2,142.3,553.1,160,539.2,178.5z"/>
		</g>
		<g>
			<path class="st2" d="M466.3,228.5c-6.6-28.3,4-58.5,25.5-72.5C489.2,174.9,474.1,217.9,466.3,228.5z"/>
		</g>
		<g>
			<path class="st0" d="M299.7,476.9c0,0,55.1,67.5,78.2,80c0,0,16,74.6,78.2,133.3c0,0-88.8-49.7-111.9-97.7
				c0,0,40.9,103,204.3,158.1c0,0-165.2,0-227.4-147.5C321.1,603,292.6,537.3,299.7,476.9z"/>
		</g>
		<g>
			<path class="st0" d="M511.2,540.8c0,0-33.8-190.1,179.4-197.2c0,0,167-1.8,211.4,7.1v110.2c0,0,5.3,158.1-55.1,216.8
				c0,0-106.6,133.3-275.4,76.4c0,0,167,8.9,232.7-124.4c0,0,12.4-49.7,10.7-74.6h-85.3c0,0-88.8-7.1-136.8,81.7
				c0,0-12.4-99.5,119-126.1c0,0,40.2-5.3,48-5.3c40.9,0,67.5-16,72.9-51.4c2.3-15.3,3.5-32.1,1.7-57l-135-3.6
				C699.5,393.4,525.4,396.9,511.2,540.8z"/>
		</g>
	</g>
	<g>
		<g>
			<path class="st3" d="M198.9,1024.2c-1.2,2-3.1,3.5-5.6,4.8c-2.6,1.2-5.9,1.8-9.9,1.8h-8.9v17.5h-8v-43.2h16.9
				c3.8,0,6.9,0.6,9.5,1.7c2.6,1.1,4.6,2.7,5.8,4.6c1.3,1.9,1.9,4.1,1.9,6.5C200.6,1020.2,200.1,1022.3,198.9,1024.2z M190.2,1023.2
				c1.5-1.2,2.3-3,2.3-5.2c0-4.7-3-7.1-9.1-7.1h-8.9v14.1h8.9C186.4,1025,188.6,1024.4,190.2,1023.2z"/>
			<path class="st3" d="M216.3,1005.1v27.5c0,3.3,1,5.7,2.9,7.4c1.9,1.7,4.7,2.5,8.1,2.5c3.5,0,6.3-0.8,8.2-2.5
				c1.9-1.7,2.9-4.1,2.9-7.4v-27.5h8v27.4c0,3.5-0.9,6.5-2.6,9c-1.7,2.4-4.1,4.3-7,5.5c-2.9,1.2-6.1,1.8-9.6,1.8s-6.7-0.6-9.6-1.8
				c-2.9-1.2-5.2-3-6.9-5.5c-1.7-2.4-2.5-5.4-2.5-9v-27.4H216.3z"/>
			<path class="st3" d="M282.3,1048.3l-11.3-17.3h-6.1v17.3h-8v-43.2h16.9c3.8,0,6.9,0.6,9.5,1.7c2.6,1.2,4.6,2.7,5.8,4.7
				c1.3,2,1.9,4.1,1.9,6.5c0,2.8-0.9,5.4-2.8,7.7s-4.7,3.9-8.6,4.7l12.1,17.9H282.3z M264.9,1025.4h8.9c3,0,5.3-0.7,6.8-2
				c1.5-1.3,2.3-3.1,2.3-5.3s-0.8-4-2.3-5.3c-1.5-1.3-3.8-1.9-6.8-1.9h-8.9V1025.4z"/>
			<path class="st3" d="M309.4,1010.8v12.7h16.9v5.8h-16.9v13.2h19v5.8h-27v-43.3h27v5.8H309.4z"/>
			<path class="st3" d="M392,1017.6c-1.3-2.2-3-3.8-5.3-4.9c-2.3-1.1-4.9-1.6-7.8-1.6c-3.2,0-6.1,0.6-8.7,1.9
				c-2.5,1.3-4.5,3.1-5.9,5.5c-1.4,2.4-2.1,5.1-2.1,8.2c0,3.1,0.7,5.9,2.1,8.2c1.4,2.4,3.4,4.2,5.9,5.5c2.5,1.3,5.4,1.9,8.7,1.9
				c4.4,0,7.9-1.1,10.6-3.2c2.7-2.2,4.4-5.1,5-8.8h-18.4v-5.7h27v5.5c-0.5,3.4-1.9,6.4-4,9.3c-2.2,2.8-5,5.1-8.5,6.7
				c-3.5,1.7-7.4,2.5-11.7,2.5c-4.6,0-8.8-0.9-12.6-2.8c-3.8-1.9-6.8-4.5-9-7.9c-2.2-3.4-3.3-7.2-3.3-11.4c0-4.2,1.1-8,3.3-11.4
				c2.2-3.4,5.3-6,9.1-7.9c3.8-1.9,8-2.8,12.6-2.8c5.2,0,9.8,1.1,13.9,3.4s7,5.5,8.8,9.6H392z"/>
			<path class="st3" d="M436.5,1048.3l-11.3-17.3h-6.1v17.3h-8v-43.2h16.9c3.8,0,6.9,0.6,9.5,1.7c2.6,1.2,4.6,2.7,5.8,4.7
				c1.3,2,1.9,4.1,1.9,6.5c0,2.8-0.9,5.4-2.8,7.7c-1.9,2.3-4.7,3.9-8.6,4.7l12.1,17.9H436.5z M419.1,1025.4h8.9c3,0,5.3-0.7,6.8-2
				c1.5-1.3,2.3-3.1,2.3-5.3s-0.8-4-2.3-5.3c-1.5-1.3-3.8-1.9-6.8-1.9h-8.9V1025.4z"/>
			<path class="st3" d="M485,1039.5h-20.5l-3.5,8.8h-8.4l17.5-43.3h9.3l17.5,43.3h-8.4L485,1039.5z M482.8,1033.7l-8-20.1l-8,20.1
				H482.8z"/>
			<path class="st3" d="M512.6,1005.1v43.2h-8v-43.2H512.6z"/>
			<path class="st3" d="M563.4,1048.3h-8l-24.2-32.3v32.3h-8v-43.3h8l24.2,32.2v-32.2h8V1048.3z"/>
			<path class="st3" d="M581.2,1047.3c-2.6-1-4.7-2.5-6.2-4.3c-1.5-1.9-2.3-4-2.3-6.5h8.6c0.2,1.9,1,3.4,2.5,4.6s3.6,1.8,6.2,1.8
				c2.8,0,4.9-0.6,6.5-1.8c1.5-1.2,2.3-2.7,2.3-4.6c0-1.5-0.5-2.6-1.4-3.5c-1-0.9-2.2-1.6-3.6-2.1c-1.4-0.5-3.4-1-6-1.6
				c-3.2-0.7-5.8-1.5-7.8-2.3c-2-0.8-3.7-2-5.1-3.6c-1.4-1.6-2.1-3.8-2.1-6.5c0-2.5,0.7-4.7,2.1-6.5c1.4-1.9,3.4-3.3,5.9-4.3
				c2.5-1,5.5-1.5,8.8-1.5c4.7,0,8.6,1,11.7,3.1c3,2.1,4.7,5,5,8.6h-8.9c-0.1-1.6-1-2.9-2.5-4c-1.5-1.1-3.6-1.7-6.1-1.7
				c-2.3,0-4.2,0.5-5.6,1.6c-1.5,1-2.2,2.5-2.2,4.5c0,1.3,0.5,2.4,1.4,3.3c0.9,0.9,2.1,1.5,3.5,2c1.4,0.5,3.3,1,5.8,1.6
				c3.2,0.8,5.9,1.6,7.9,2.4s3.8,2,5.2,3.6c1.4,1.6,2.1,3.8,2.1,6.6c0,2.2-0.7,4.3-2,6.2c-1.3,1.9-3.3,3.5-5.8,4.7
				c-2.6,1.2-5.6,1.8-9.1,1.8C586.8,1048.8,583.9,1048.3,581.2,1047.3z"/>
			<path class="st3" d="M625.3,1039.8l-8.5,17.2h-5.2l5-17.2H625.3z"/>
			<path class="st3" d="M683.1,1024.2c-1.2,2-3.1,3.5-5.6,4.8c-2.6,1.2-5.9,1.8-9.9,1.8h-8.9v17.5h-8v-43.2h16.9
				c3.8,0,6.9,0.6,9.5,1.7c2.6,1.1,4.6,2.7,5.8,4.6c1.3,1.9,1.9,4.1,1.9,6.5C684.9,1020.2,684.3,1022.3,683.1,1024.2z M674.4,1023.2
				c1.5-1.2,2.3-3,2.3-5.2c0-4.7-3-7.1-9.1-7.1h-8.9v14.1h8.9C670.6,1025,672.9,1024.4,674.4,1023.2z"/>
			<path class="st3" d="M700.5,1005.1v27.5c0,3.3,1,5.7,2.9,7.4c1.9,1.7,4.7,2.5,8.1,2.5c3.5,0,6.3-0.8,8.2-2.5
				c1.9-1.7,2.9-4.1,2.9-7.4v-27.5h8v27.4c0,3.5-0.9,6.5-2.6,9c-1.7,2.4-4.1,4.3-7,5.5c-2.9,1.2-6.1,1.8-9.6,1.8s-6.7-0.6-9.6-1.8
				s-5.2-3-6.9-5.5c-1.7-2.4-2.5-5.4-2.5-9v-27.4H700.5z"/>
			<path class="st3" d="M766.6,1048.3l-11.3-17.3h-6.1v17.3h-8v-43.2H758c3.8,0,6.9,0.6,9.5,1.7c2.6,1.2,4.6,2.7,5.8,4.7
				c1.3,2,1.9,4.1,1.9,6.5c0,2.8-0.9,5.4-2.8,7.7s-4.7,3.9-8.6,4.7l12.1,17.9H766.6z M749.2,1025.4h8.9c3,0,5.3-0.7,6.8-2
				c1.5-1.3,2.3-3.1,2.3-5.3s-0.8-4-2.3-5.3c-1.5-1.3-3.8-1.9-6.8-1.9h-8.9V1025.4z"/>
			<path class="st3" d="M793.7,1010.8v12.7h16.9v5.8h-16.9v13.2h19v5.8h-27v-43.3h27v5.8H793.7z"/>
			<path class="st3" d="M872.5,1005.1v5.8h-13v37.4h-8v-37.4h-13.1v-5.8H872.5z"/>
			<path class="st3" d="M906,1048.3l-11.3-17.3h-6.1v17.3h-8v-43.2h16.9c3.8,0,6.9,0.6,9.5,1.7c2.6,1.2,4.6,2.7,5.8,4.7
				c1.3,2,1.9,4.1,1.9,6.5c0,2.8-0.9,5.4-2.8,7.7c-1.9,2.3-4.7,3.9-8.6,4.7l12.1,17.9H906z M888.6,1025.4h8.9c3,0,5.3-0.7,6.8-2
				c1.5-1.3,2.3-3.1,2.3-5.3s-0.8-4-2.3-5.3c-1.5-1.3-3.8-1.9-6.8-1.9h-8.9V1025.4z"/>
			<path class="st3" d="M933,1005.1v27.5c0,3.3,1,5.7,2.9,7.4c1.9,1.7,4.7,2.5,8.1,2.5c3.5,0,6.3-0.8,8.2-2.5
				c1.9-1.7,2.9-4.1,2.9-7.4v-27.5h8v27.4c0,3.5-0.9,6.5-2.6,9c-1.7,2.4-4.1,4.3-7,5.5c-2.9,1.2-6.1,1.8-9.6,1.8
				c-3.5,0-6.7-0.6-9.6-1.8s-5.2-3-6.9-5.5c-1.7-2.4-2.5-5.4-2.5-9v-27.4H933z"/>
			<path class="st3" d="M980.9,1047.3c-2.6-1-4.7-2.5-6.2-4.3c-1.5-1.9-2.3-4-2.3-6.5h8.6c0.2,1.9,1,3.4,2.5,4.6s3.6,1.8,6.2,1.8
				c2.8,0,4.9-0.6,6.5-1.8c1.5-1.2,2.3-2.7,2.3-4.6c0-1.5-0.5-2.6-1.4-3.5c-1-0.9-2.2-1.6-3.6-2.1c-1.4-0.5-3.4-1-6-1.6
				c-3.2-0.7-5.8-1.5-7.8-2.3c-2-0.8-3.7-2-5.1-3.6c-1.4-1.6-2.1-3.8-2.1-6.5c0-2.5,0.7-4.7,2.1-6.5c1.4-1.9,3.4-3.3,5.9-4.3
				c2.5-1,5.5-1.5,8.8-1.5c4.7,0,8.6,1,11.7,3.1c3,2.1,4.7,5,5,8.6h-8.9c-0.1-1.6-1-2.9-2.5-4c-1.5-1.1-3.6-1.7-6.1-1.7
				c-2.3,0-4.2,0.5-5.6,1.6c-1.5,1-2.2,2.5-2.2,4.5c0,1.3,0.5,2.4,1.4,3.3c0.9,0.9,2.1,1.5,3.5,2c1.4,0.5,3.3,1,5.8,1.6
				c3.2,0.8,5.9,1.6,7.9,2.4s3.8,2,5.2,3.6c1.4,1.6,2.1,3.8,2.1,6.6c0,2.2-0.7,4.3-2,6.2c-1.3,1.9-3.3,3.5-5.8,4.7
				c-2.6,1.2-5.6,1.8-9.1,1.8C986.5,1048.8,983.5,1048.3,980.9,1047.3z"/>
			<path class="st3" d="M1047.8,1005.1v5.8h-13v37.4h-8v-37.4h-13.1v-5.8H1047.8z"/>
		</g>
		<line class="st4" x1="1069.1" y1="1030.8" x2="1147.2" y2="1030.8"/>
		<line class="st4" x1="67" y1="1030.8" x2="145.2" y2="1030.8"/>
	</g>
	<g>
		<path class="st1" d="M925.1,1101.7c-211.9-4-423.7-4.7-637.8,1.2c4.4-3.9,8-4.1,11.6-4.6c47.5-5.7,95.5-6.9,143.4-8.7
			c87.8-3.3,175.7-2.4,263.6-1.8c66.5,0.5,132.8,4.2,199,9.1C911.6,1097.3,918.9,1097.6,925.1,1101.7z"/>
	</g>
</g>
</svg>
