<?xml version="1.0" encoding="utf-8"?>
<!-- Generator: Adobe Illustrator 25.0.1, SVG Export Plug-In . SVG Version: 6.00 Build 0)  -->
<svg version="1.1" id="Layer_1" xmlns="http://www.w3.org/2000/svg" xmlns:xlink="http://www.w3.org/1999/xlink" x="0px" y="0px"
	 viewBox="0 0 32 32" style="enable-background:new 0 0 32 32;" xml:space="preserve">
<style type="text/css">
	.st0{fill:#236C48;}
	.st1{fill:#CDBE45;}
	.st2{fill:#ECE06E;}
</style>
<g>
	<g>
		<path class="st0" d="M18.2,28c-0.5-0.9-1.3-1.4-2.2-1.7c-1.6-0.5-3.3-0.8-4.8-1.6c-0.9-0.7-1.9-1.4-2.6-2.3c0.1,0.3,0.1,0.7,0.3,1
			c1,2.4,2.8,3.9,5.2,4.8c0.6,0.2,1.2,0.4,1.9,0.5c0.4,0,0.8,0,1.3,0c0.2,0,0.4,0,0.6-0.1C18.5,28.5,18.5,28.5,18.2,28z"/>
	</g>
	<g>
		<path class="st1" d="M27.9,4.1C26.7,3.5,25.5,3,24.1,3c-1.2,0-2.3,0.4-3.4,0.9c-0.8,0.4-1.6,0.7-2.5,0.9c-1.5,0.3-3,0.8-4.4,1.6
			c-1.7,0.9-3.2,2.1-4.5,3.5c-1,1.1-1.7,2.3-2.3,3.6c0,0,0,0,0,0c-1.1,2.1-1.4,4.3-1.2,6.7c0.1,0.4,0.3,1.8,0.4,2.2
			c0.4,1,0.4,1.6,1.7,3.3c0.2,0.3,0.7,1,1.4,1.6c0.8,0.7,1.9,1.2,2.3,1.4c1.3,0.7,2.7,1.2,4.2,1.3c0,0,0,0,0,0
			c0.2,0.1,1,0.1,1.1-0.1c-0.2-0.2-1.2-0.4-1.3-0.4c-4.1-1.2-7-3.6-8.3-7.8c-0.4-1.4-0.6-2.8-0.5-4.2c0.1-1.1,0.4-2.1,0.9-3.2
			c0,0,0,0,0,0C8.5,12.5,9.7,11,11,9.7c1.1-1.1,2.3-2,3.6-2.8c0,0,0,0,0,0c0.3-0.1,0.6-0.3,0.8-0.4c1.7-0.9,3.4-1.4,5.3-1.3
			c0.7,0,1.4,0.2,2.1,0.3c1.8,0.2,3.5,0,5.1-0.9C28.2,4.3,28.2,4.2,27.9,4.1z"/>
	</g>
	<g>
		<path class="st1" d="M14.2,10.6c0.3,0,0.9,0.1,1.4,0.1c0.1,0,0.2,0.1,0.1,0.2c-0.6,0.6-1.2,1.3-2,1.8c-1.1,0.7-2.4,1.1-3.7,1.2
			c-0.4,0-0.8,0.1-1.2,0.2c-0.1,0-0.2,0.1-0.2,0c-0.1-0.1,0-0.1,0-0.2C9.7,11.8,11.4,10.6,14.2,10.6z"/>
	</g>
	<g>
		<path class="st1" d="M5.1,19.1c-0.9-1.2-1.7-2.5-1.9-4c-0.2-1.5,0.2-2.9,1-4.1c0,0,0-0.1,0.1-0.2c0.6,1.4,1.4,2.7,1.4,4.3
			c0,0.5-0.1,1-0.2,1.6C5.3,17.4,5.2,18.2,5.1,19.1z"/>
	</g>
	<g>
		<path class="st1" d="M19.4,8.5c-1.5,1.2-3.2,1.7-5.1,1.4c-0.7-0.1-1.5-0.3-2.2-0.2C12.8,7.8,17.2,7.1,19.4,8.5z"/>
	</g>
	<g>
		<path class="st1" d="M6.4,13.4c-0.3-0.7-0.5-1.4-0.6-2.2C5.5,9.1,6.4,7.4,7.9,6.1C8,6,8,6,8.1,6c0.1,0,0.1,0.1,0.1,0.2
			c0.1,0.5,0.2,1,0.3,1.5c0.1,0.9,0,1.8-0.4,2.7C7.7,11.5,6.9,12.3,6.4,13.4z"/>
	</g>
	<g>
		<path class="st1" d="M15.5,4.9c1.3-2.6,3.3-3.9,6-3.7c0.4,0,0.4,0.1,0.2,0.4c-1,1.5-2.3,2.5-4.1,2.9C16.9,4.5,16.2,4.7,15.5,4.9z"
			/>
	</g>
	<g>
		<path class="st1" d="M15.6,7.2c3.1-2,6-1.7,8,0c-0.7,0.3-1.4,0.4-2.2,0.5c-1.1,0.1-2.1-0.1-3.1-0.4C17.5,7.1,16.6,7.1,15.6,7.2z"
			/>
	</g>
	<g>
		<path class="st1" d="M7.4,20c-0.4-3.5,1.7-5.6,5.4-5.5c-0.7,1.2-1.4,2.3-2.6,3.1c-0.4,0.2-0.7,0.4-1.1,0.7C8.5,18.5,8,19,7.7,19.6
			C7.6,19.7,7.5,19.8,7.4,20z"/>
	</g>
	<g>
		<path class="st1" d="M16,1c-0.4,2.6-1.7,4.6-4.1,5.8c0.4-1.4,0.4-3,1.4-4.3c0.4-0.5,0.9-0.8,1.4-1.1C15.1,1.3,15.5,1.1,16,1z"/>
	</g>
	<g>
		<path class="st1" d="M9.1,9.3c-0.1-0.4,0-0.7,0-1c0-0.8-0.1-1.6,0.1-2.4c0.3-1.3,1.1-2.2,2.3-2.8C11.6,3,11.7,3,11.7,3.2
			c0.1,2.1-0.3,4-2,5.5C9.5,8.8,9.4,9.1,9.1,9.3z"/>
	</g>
	<g>
		<path class="st2" d="M12.9,11.3c-1.1,0.5-2.2,1.2-3.5,1.7C10.4,11.9,11.5,11.4,12.9,11.3z"/>
	</g>
	<g>
		<path class="st2" d="M4.8,17.4c-0.4-1-0.9-2-0.8-3.1c0-0.3-0.1-0.5,0-0.8c0-0.1,0-0.2,0.1-0.2c0.1,0,0.1,0.1,0.1,0.2
			c0.1,0.3,0.1,0.7,0.2,1C4.6,15.4,4.6,16.4,4.8,17.4z"/>
	</g>
	<g>
		<path class="st2" d="M7.1,10.4c-0.2-0.3-0.2-0.8-0.3-1.1C6.7,8.5,6.9,7.7,7.5,7C7.5,7,7.6,6.8,7.7,6.9c0.1,0,0.1,0.1,0.1,0.2
			C7.7,8.2,7.6,9.3,7.1,10.4C7.2,10.4,7.2,10.4,7.1,10.4z"/>
	</g>
	<g>
		<path class="st2" d="M17.4,3.2c0.4-0.9,1.6-1.5,2.8-1.5C19.3,2.4,18.2,2.7,17.4,3.2z"/>
	</g>
	<g>
		<path class="st2" d="M22.3,4.5c1-0.7,2.6-0.8,4.2-0.2C25.2,4.7,23.6,4.6,22.3,4.5z"/>
	</g>
	<g>
		<path class="st2" d="M11,15.1c-1.2,1.1-2.5,2-3,3.6c0,0-0.1,0-0.1-0.1c0-0.2,0-0.3,0-0.5c0.2-1.6,1.1-2.6,2.6-3.2
			C10.6,15,10.8,15,11,15.1z"/>
	</g>
	<g>
		<path class="st2" d="M13.3,4.6c-0.1-0.3,0-0.5,0-0.7c0.2-0.8,0.6-1.6,1.3-2.1c0.1-0.1,0.2-0.2,0.4-0.1C15.1,1.9,15,2,15,2.2
			C14.5,3,13.9,3.8,13.3,4.6z"/>
	</g>
	<g>
		<path class="st2" d="M10,6.9c-0.3-1.3,0.2-2.6,1.1-3.2C11,4.5,10.4,6.4,10,6.9z"/>
	</g>
	<g>
		<path class="st0" d="M2.6,18c0,0,2.5,3,3.5,3.6c0,0,0.7,3.3,3.5,6c0,0-4-2.2-5-4.4c0,0,1.8,4.6,9.1,7.1c0,0-7.4,0-10.2-6.6
			C3.5,23.6,2.2,20.7,2.6,18z"/>
	</g>
	<g>
		<path class="st0" d="M12,20.8c0,0-1.5-8.5,8-8.8c0,0,7.5-0.1,9.5,0.3v4.9c0,0,0.2,7.1-2.5,9.7c0,0-4.8,6-12.3,3.4
			c0,0,7.5,0.4,10.4-5.6c0,0,0.6-2.2,0.5-3.3h-3.8c0,0-4-0.3-6.1,3.7c0,0-0.6-4.4,5.3-5.6c0,0,1.8-0.2,2.1-0.2c1.8,0,3-0.7,3.3-2.3
			c0.1-0.7,0.2-1.4,0.1-2.5l-6-0.2C20.4,14.2,12.6,14.4,12,20.8z"/>
	</g>
</g>
</svg>
